<svg width="34" height="34" viewBox="0 0 34 34" fill="none" xmlns="http://www.w3.org/2000/svg">
<rect x="1" y="1" width="32" height="32" rx="16" fill="#91C253"/>
<path d="M16.6328 9.13171C17.1506 9.13171 17.5703 9.55145 17.5703 10.0692V15.6942H23.1953C23.7131 15.6942 24.1328 16.1139 24.1328 16.6317C24.1328 17.1495 23.7131 17.5692 23.1953 17.5692H17.5703V23.1942C17.5703 23.712 17.1506 24.1317 16.6328 24.1317C16.115 24.1317 15.6953 23.712 15.6953 23.1942V17.5692H10.0703C9.55255 17.5692 9.13281 17.1495 9.13281 16.6317C9.13281 16.1139 9.55255 15.6942 10.0703 15.6942H15.6953V10.0692C15.6953 9.55145 16.115 9.13171 16.6328 9.13171Z" fill="white"/>
<rect x="1" y="1" width="32" height="32" rx="16" stroke="#D8D8D8" stroke-width="2"/>
</svg>
