<svg width="36" height="36" viewBox="0 0 36 36" fill="none" xmlns="http://www.w3.org/2000/svg">
<rect x="0.5" y="0.5" width="35" height="35" rx="17.5" fill="white"/>
<path fill-rule="evenodd" clip-rule="evenodd" d="M24.5 24C24.7761 24 25 23.7761 25 23.5L25 18.7C25 17.3193 23.8807 16.2 22.5 16.2L12.7071 16.2L16.0536 12.8536C16.2488 12.6583 16.2488 12.3417 16.0536 12.1464C15.8583 11.9512 15.5417 11.9512 15.3464 12.1464L11.1464 16.3464C10.9512 16.5417 10.9512 16.8583 11.1464 17.0536L15.1464 21.0536C15.3417 21.2488 15.6583 21.2488 15.8536 21.0536C16.0488 20.8583 16.0488 20.5417 15.8536 20.3464L12.7071 17.2L22.5 17.2C23.3284 17.2 24 17.8716 24 18.7L24 23.5C24 23.7761 24.2239 24 24.5 24Z" fill="#505050"/>
<rect x="0.5" y="0.5" width="35" height="35" rx="17.5" stroke="#D8D8D8"/>
</svg>
