<svg width="24" height="24" viewBox="0 0 24 24" fill="none" xmlns="http://www.w3.org/2000/svg">
<path fill-rule="evenodd" clip-rule="evenodd" d="M9.99969 9.00661C10.5917 8.61104 11.2877 8.3999 11.9997 8.3999C12.9545 8.3999 13.8702 8.77919 14.5453 9.45432C15.2205 10.1294 15.5997 11.0451 15.5997 11.9999C15.5997 12.7119 15.3886 13.4079 14.993 14C14.5975 14.592 14.0352 15.0534 13.3774 15.3259C12.7196 15.5983 11.9958 15.6696 11.2974 15.5307C10.5991 15.3918 9.95763 15.049 9.45416 14.5455C8.95069 14.042 8.60782 13.4006 8.46892 12.7022C8.33001 12.0039 8.4013 11.2801 8.67378 10.6222C8.94625 9.96443 9.40767 9.40218 9.99969 9.00661ZM10.6664 13.9954C11.0611 14.2591 11.5251 14.3999 11.9997 14.3999C12.6363 14.3999 13.2467 14.147 13.6968 13.697C14.1469 13.2469 14.3997 12.6364 14.3997 11.9999C14.3997 11.5252 14.259 11.0612 13.9953 10.6665C13.7316 10.2719 13.3567 9.96424 12.9182 9.78259C12.4796 9.60094 11.9971 9.55341 11.5315 9.64602C11.066 9.73862 10.6383 9.9672 10.3027 10.3028C9.96704 10.6385 9.73846 11.0661 9.64586 11.5317C9.55326 11.9972 9.60078 12.4798 9.78243 12.9183C9.96408 13.3569 10.2717 13.7317 10.6664 13.9954Z" fill="#505050"/>
<path fill-rule="evenodd" clip-rule="evenodd" d="M17.4398 7.25515C19.0329 8.39187 20.258 9.97049 20.9637 11.7959C21.0114 11.9277 21.0114 12.0721 20.9637 12.2039C20.258 14.0293 19.0329 15.6079 17.4398 16.7446C15.8467 17.8814 13.9554 18.5264 11.9997 18.5999C10.0441 18.5264 8.15278 17.8814 6.55967 16.7446C4.96655 15.6079 3.74144 14.0293 3.03574 12.2039C2.98809 12.0721 2.98809 11.9277 3.03574 11.7959C3.74144 9.97049 4.96655 8.39187 6.55967 7.25515C8.15278 6.11844 10.0441 5.47345 11.9997 5.3999C13.9554 5.47345 15.8467 6.11844 17.4398 7.25515ZM4.24174 11.9999C5.45974 15.0419 8.81975 17.3999 11.9997 17.3999C15.1797 17.3999 18.5397 15.0419 19.7577 11.9999C18.5397 8.9579 15.1797 6.5999 11.9997 6.5999C8.81975 6.5999 5.45974 8.9579 4.24174 11.9999Z" fill="#505050"/>
</svg>
