<svg width="24" height="24" viewBox="0 0 24 24" fill="none" xmlns="http://www.w3.org/2000/svg">
<rect x="0.5" y="0.5" width="23" height="23" rx="11.5" fill="white"/>
<path fill-rule="evenodd" clip-rule="evenodd" d="M6.16406 6.49984C6.16406 6.31574 6.3133 6.1665 6.4974 6.1665H9.9974C10.1815 6.1665 10.3307 6.31574 10.3307 6.49984C10.3307 6.68393 10.1815 6.83317 9.9974 6.83317H7.30126L10.7331 10.2641C10.8633 10.3943 10.8633 10.6053 10.7331 10.7355C10.603 10.8657 10.3919 10.8657 10.2617 10.7356L6.83073 7.30545V9.99984C6.83073 10.1839 6.68149 10.3332 6.4974 10.3332C6.3133 10.3332 6.16406 10.1839 6.16406 9.99984V6.49984ZM13.6641 6.49984C13.6641 6.31574 13.8133 6.1665 13.9974 6.1665H17.4974C17.6815 6.1665 17.8307 6.31574 17.8307 6.49984V9.99984C17.8307 10.1839 17.6815 10.3332 17.4974 10.3332C17.3133 10.3332 17.1641 10.1839 17.1641 9.99984V7.3037L13.7331 10.7355C13.603 10.8657 13.3919 10.8657 13.2617 10.7356C13.1315 10.6054 13.1315 10.3944 13.2617 10.2642L16.6918 6.83317H13.9974C13.8133 6.83317 13.6641 6.68393 13.6641 6.49984ZM10.7331 13.2641C10.8633 13.3943 10.8633 13.6053 10.7331 13.7355L7.30301 17.1665H9.9974C10.1815 17.1665 10.3307 17.3157 10.3307 17.4998C10.3307 17.6839 10.1815 17.8332 9.9974 17.8332H6.4974C6.3133 17.8332 6.16406 17.6839 6.16406 17.4998V13.9998C6.16406 13.8157 6.3133 13.6665 6.4974 13.6665C6.68149 13.6665 6.83073 13.8157 6.83073 13.9998V16.696L10.2617 13.2642C10.3918 13.134 10.6029 13.1339 10.7331 13.2641ZM13.2617 13.2642C13.3918 13.134 13.6029 13.1339 13.7331 13.2641L17.1641 16.6942V13.9998C17.1641 13.8157 17.3133 13.6665 17.4974 13.6665C17.6815 13.6665 17.8307 13.8157 17.8307 13.9998V17.4998C17.8307 17.6839 17.6815 17.8332 17.4974 17.8332H13.9974C13.8133 17.8332 13.6641 17.6839 13.6641 17.4998C13.6641 17.3157 13.8133 17.1665 13.9974 17.1665H16.6935L13.2617 13.7356C13.1315 13.6054 13.1315 13.3944 13.2617 13.2642Z" fill="#505050"/>
<rect x="0.5" y="0.5" width="23" height="23" rx="11.5" stroke="#D8D8D8"/>
</svg>
