<svg width="20" height="20" viewBox="0 0 20 20" fill="none" xmlns="http://www.w3.org/2000/svg">
<path d="M5.65813 1.88919L6.84385 1.53205C7.3836 1.36921 7.96417 1.40836 8.47717 1.64219C8.99018 1.87602 9.40056 2.28854 9.63171 2.80276L10.3696 4.44419C10.5684 4.88638 10.6238 5.37972 10.5279 5.85499C10.4321 6.33025 10.1899 6.76359 9.83528 7.09419L8.54599 8.29634C8.53006 8.31122 8.51699 8.32889 8.50742 8.34848C8.37242 8.62419 8.57742 9.36062 9.21956 10.4735C9.94385 11.7278 10.5031 12.2235 10.7624 12.147L12.4546 11.6292C12.918 11.4877 13.4141 11.4947 13.8733 11.6493C14.3325 11.8039 14.7318 12.0984 15.0153 12.4913L16.0638 13.9435C16.3931 14.3994 16.5455 14.9594 16.493 15.5193C16.4404 16.0792 16.1864 16.601 15.7781 16.9878L14.876 17.8413C14.5623 18.1385 14.1813 18.3553 13.7657 18.4734C13.35 18.5914 12.9119 18.6071 12.4888 18.5192C9.97671 17.9963 7.72599 15.9735 5.71742 12.4949C3.70813 9.01419 3.08171 6.04991 3.88885 3.61205C4.02396 3.20391 4.25533 2.83429 4.5634 2.53442C4.87148 2.23455 5.2465 2.01324 5.65813 1.88919ZM5.96813 2.91491C5.72114 2.9893 5.49568 3.12206 5.31081 3.30195C5.12594 3.48185 4.98709 3.7036 4.90599 3.94848C4.21028 6.04919 4.77385 8.71776 6.64528 11.9592C8.51528 15.1985 10.5424 17.0199 12.7067 17.4699C12.9607 17.5227 13.2236 17.5133 13.4732 17.4424C13.7227 17.3715 13.9513 17.2412 14.1396 17.0628L15.041 16.2099C15.2609 16.0017 15.3978 15.7208 15.4262 15.4193C15.4545 15.1177 15.3725 14.8162 15.1953 14.5706L14.1467 13.1178C13.9941 12.9062 13.7791 12.7477 13.5319 12.6644C13.2847 12.5812 13.0176 12.5773 12.7681 12.6535L11.0717 13.1728C10.1331 13.4521 9.25028 12.6699 8.29171 11.0085C7.47956 9.60276 7.19813 8.58705 7.54528 7.87776C7.61242 7.74062 7.70385 7.61705 7.81528 7.51276L9.10456 6.31062C9.29559 6.13261 9.42608 5.89924 9.47771 5.64328C9.52933 5.38732 9.49951 5.12162 9.39242 4.88348L8.65456 3.24276C8.5301 2.96581 8.30909 2.74362 8.03279 2.6177C7.7565 2.49177 7.44381 2.47072 7.15313 2.55848L5.96742 2.91562L5.96813 2.91491Z" fill="#AEAEAE"/>
</svg>
