<svg width="20" height="20" viewBox="0 0 20 20" fill="none" xmlns="http://www.w3.org/2000/svg">
<path fill-rule="evenodd" clip-rule="evenodd" d="M10.0013 5.27244C8.73876 5.27244 7.71527 6.31285 7.71527 7.59627C7.71527 8.87968 8.73876 9.92009 10.0013 9.92009C11.2638 9.92009 12.2873 8.87968 12.2873 7.59627C12.2873 6.31285 11.2638 5.27244 10.0013 5.27244ZM8.74004 7.59627C8.74004 6.88818 9.30473 6.31416 10.0013 6.31416C10.6979 6.31416 11.2626 6.88818 11.2626 7.59627C11.2626 8.30436 10.6979 8.87838 10.0013 8.87838C9.30473 8.87838 8.74004 8.30436 8.74004 7.59627Z" fill="#AEAEAE"/>
<path fill-rule="evenodd" clip-rule="evenodd" d="M10.0013 1.6665C6.80501 1.6665 4.16797 4.18153 4.16797 7.33334C4.16797 9.11345 5.11778 11.3291 6.16858 13.258C7.23312 15.2121 8.45959 16.9737 9.11738 17.8771C9.2188 18.0181 9.35143 18.1328 9.50457 18.2121C9.65844 18.2917 9.82865 18.3332 10.0013 18.3332C10.174 18.3332 10.3442 18.2917 10.498 18.2121C10.6507 18.1331 10.7829 18.0189 10.8842 17.8785C11.5418 16.9759 12.7689 15.2141 13.834 13.2593C14.8849 11.3306 15.8346 9.11474 15.8346 7.33334C15.8346 4.18153 13.1976 1.6665 10.0013 1.6665ZM5.19274 7.33334C5.19274 4.80504 7.32238 2.70822 10.0013 2.70822C12.6802 2.70822 14.8099 4.80504 14.8099 7.33334C14.8099 8.82244 13.986 10.8303 12.9376 12.7546C11.9034 14.6527 10.7056 16.3733 10.0607 17.2586L10.0582 17.262C10.0516 17.2712 10.0431 17.2786 10.0332 17.2837C10.0233 17.2888 10.0124 17.2915 10.0013 17.2915C9.99021 17.2915 9.97928 17.2888 9.9694 17.2837C9.95952 17.2786 9.95097 17.2712 9.94444 17.262L9.94201 17.2587C9.29705 16.373 8.09928 14.6517 7.06506 12.7533C6.01659 10.8287 5.19274 8.8211 5.19274 7.33334Z" fill="#AEAEAE"/>
</svg>
