<svg width="48" height="48" viewBox="0 0 48 48" fill="none" xmlns="http://www.w3.org/2000/svg">
<rect x="0.000244141" width="48" height="48" rx="8" fill="#1E2E5A"/>
<path d="M25.4633 23.8779C27.1427 23.059 28.3001 21.3324 28.3001 19.3349C28.3001 16.5463 26.0444 14.2856 23.2619 14.2856C20.4794 14.2856 18.2237 16.5463 18.2237 19.3349C18.2237 21.242 19.2788 22.9022 20.8358 23.7612C20.8507 23.9523 20.8368 24.1656 20.7433 24.3292C20.5238 24.7134 20.0314 24.8781 20.0314 24.8781C20.0314 24.8781 18.279 25.4818 16.8552 26.6343C15.4313 27.7869 15.4313 29.2687 15.4313 29.2687V31.0798C15.4313 31.0798 15.3214 32.2324 16.5266 32.2324C16.8738 32.2324 17.3892 32.246 17.9745 32.2616C19.4208 32.2999 21.294 32.3496 22.1124 32.2324C23.2619 32.0677 22.7148 30.531 22.7148 30.531C22.7148 30.531 22.3475 29.2687 22.8786 28.2808C23.3548 27.3949 23.9233 27.1163 24.648 26.7611C24.7315 26.7202 24.8171 26.6783 24.9048 26.6343C25.5615 26.305 26 26.0306 26.0548 25.2622C26.0911 24.7532 25.7188 24.196 25.4633 23.8779Z" fill="white"/>
<path d="M32.5716 28.8845C32.5716 28.642 32.3754 28.4454 32.1335 28.4454H29.5049V25.8111C29.5049 25.5686 29.3087 25.372 29.0668 25.372H27.7525C27.5105 25.372 27.3144 25.5686 27.3144 25.8111V28.4454H24.6857C24.4438 28.4454 24.2476 28.642 24.2476 28.8845V30.2017C24.2476 30.4442 24.4438 30.6408 24.6857 30.6408H27.3144V33.2752C27.3144 33.5176 27.5105 33.7142 27.7525 33.7142H29.0668C29.3087 33.7142 29.5049 33.5176 29.5049 33.2752V30.6408H32.1335C32.3754 30.6408 32.5716 30.4442 32.5716 30.2017V28.8845Z" fill="white"/>
<rect x="1.00024" y="1" width="46" height="46" rx="7" stroke="#EBEBEB" stroke-opacity="0.3" stroke-width="2"/>
</svg>
