<svg width="45" height="44" viewBox="0 0 45 44" fill="none" xmlns="http://www.w3.org/2000/svg">
<rect width="45" height="44" rx="8" fill="#1E2E5A"/>
<path d="M26.2422 24.3439C27.0329 23.2673 27.5 21.9382 27.5 20.5C27.5 16.9101 24.5899 14 21 14C17.4101 14 14.5 16.9101 14.5 20.5C14.5 24.0899 17.4101 27 21 27C22.4386 27 23.768 26.5327 24.8448 25.7415L24.8439 25.7422C24.8734 25.7822 24.9062 25.8204 24.9424 25.8566L28.7929 29.7071C29.1834 30.0976 29.8166 30.0976 30.2071 29.7071C30.5976 29.3166 30.5976 28.6834 30.2071 28.2929L26.3566 24.4424C26.3204 24.4062 26.2822 24.3734 26.2422 24.3439ZM26.5 20.5C26.5 23.5376 24.0376 26 21 26C17.9624 26 15.5 23.5376 15.5 20.5C15.5 17.4624 17.9624 15 21 15C24.0376 15 26.5 17.4624 26.5 20.5Z" fill="white"/>
<rect x="1" y="1" width="43" height="42" rx="7" stroke="#EBEBEB" stroke-opacity="0.3" stroke-width="2"/>
</svg>
