<svg width="127" height="85" viewBox="0 0 127 85" fill="none" xmlns="http://www.w3.org/2000/svg">
<path d="M53.3059 23.2338C54.1367 20.1867 57.1558 18 60.6434 18H67.9809C69.6403 18.0002 71.4383 18.4365 72.7503 19.3957C74.0623 20.3548 74.903 21.7171 75.3184 23.2338H75.6853C77.6703 23.2338 79.418 24.0022 80.8216 25.3273C82.2251 26.6523 83.0228 28.3382 83.0228 30.2121V39.284C83.0228 41.1579 82.2251 42.8438 80.8216 44.1688C79.418 45.4939 77.6703 46.2623 75.6853 46.2623H52.9391C50.9541 46.2623 49.2064 45.4939 47.8028 44.1688C46.3992 42.8438 45.6016 41.1579 45.6016 39.284V30.2121C45.6016 28.3382 46.3992 26.6523 47.8028 25.3273C49.2064 24.0022 50.9541 23.2338 52.9391 23.2338H53.3059ZM64.3122 41.0285C66.2971 41.0285 68.0449 40.2601 69.4484 38.935C70.852 37.61 71.6497 35.9241 71.6497 34.0502C71.6497 32.1763 70.852 30.1415 69.4484 28.8164C68.0449 27.4914 66.2971 26.7229 64.3122 26.7229C62.3272 26.7229 60.5795 27.4914 59.1759 28.8164C57.7724 30.1415 56.9747 32.1763 56.9747 34.0502C56.9747 35.9241 57.7724 37.61 59.1759 38.935C60.5795 40.2601 62.3272 41.0285 64.3122 41.0285ZM75.6853 32.3056C76.1815 32.3056 76.435 31.939 76.7859 31.6078C77.1368 31.2765 77.5197 30.6806 77.5197 30.2121C77.5197 29.7436 77.1368 29.4966 76.7859 29.1654C76.435 28.8341 76.1815 28.4675 75.6853 28.4675C75.1891 28.4675 74.5687 28.8341 74.2178 29.1654C73.8669 29.4966 73.8509 29.7436 73.8509 30.2121C73.8509 30.6806 73.8669 31.2765 74.2178 31.6078C74.5687 31.939 75.1891 32.3056 75.6853 32.3056ZM64.3122 37.5394C63.3197 37.5394 62.4458 37.1551 61.7441 36.4926C61.0423 35.8301 60.6434 34.9872 60.6434 34.0502C60.6434 33.1132 61.0423 31.9214 61.7441 31.2589C62.4458 30.5963 63.3197 30.2121 64.3122 30.2121C65.3047 30.2121 66.1785 30.5963 66.8803 31.2589C67.5821 31.9214 67.9809 33.1132 67.9809 34.0502C67.9809 34.9872 67.5821 35.8301 66.8803 36.4926C66.1785 37.1551 65.3047 37.5394 64.3122 37.5394Z" fill="#D8D8D8"/>
<path d="M30.5813 60.1197V59.0037H36.4013V60.1197H34.1813V67.3438H32.8133V60.1197H30.5813ZM37.3307 64.0077C37.3307 61.9677 38.7107 60.6237 40.4507 60.6237C41.5667 60.6237 42.3347 61.1517 42.7427 61.6917V60.7318H44.1227V67.3438H42.7427V66.3597C42.3227 66.9237 41.5307 67.4518 40.4267 67.4518C38.7107 67.4518 37.3307 66.0477 37.3307 64.0077ZM42.7427 64.0317C42.7427 62.6157 41.7707 61.8117 40.7387 61.8117C39.7187 61.8117 38.7347 62.5797 38.7347 64.0077C38.7347 65.4357 39.7187 66.2637 40.7387 66.2637C41.7707 66.2637 42.7427 65.4597 42.7427 64.0317ZM45.9195 67.3438V58.4637H47.2875V63.6237L49.6875 60.7318H51.5835L48.5355 64.0437L51.5835 67.3438H49.7355L47.2875 64.4997V67.3438H45.9195ZM55.3481 61.7757C54.4241 61.7757 53.6801 62.3997 53.5361 63.4437H57.1961C57.1721 62.4237 56.3681 61.7757 55.3481 61.7757ZM58.4441 65.3757C58.0721 66.5277 57.0281 67.4518 55.4081 67.4518C53.5121 67.4518 52.1081 66.1077 52.1081 64.0317C52.1081 61.9557 53.4521 60.6237 55.4081 60.6237C57.2921 60.6237 58.6241 61.9317 58.6241 63.8757C58.6241 64.1037 58.6121 64.3197 58.5761 64.5477H53.5241C53.6201 65.6397 54.4001 66.2997 55.4081 66.2997C56.2481 66.2997 56.7161 65.8917 56.9681 65.3757H58.4441ZM64.4555 62.8437H65.9675C67.0355 62.8437 67.5155 62.3277 67.5155 61.4877C67.5155 60.6237 67.0355 60.1197 65.9675 60.1197H64.4555V62.8437ZM68.9195 61.4877C68.9195 62.6757 68.1395 63.9597 65.9675 63.9597H64.4555V67.3438H63.0875V59.0037H65.9675C67.9475 59.0037 68.9195 60.1317 68.9195 61.4877ZM70.2242 67.3438V58.4637H71.5922V61.4997C72.0482 60.9477 72.7922 60.6237 73.6442 60.6237C75.1202 60.6237 76.2722 61.5957 76.2722 63.4437V67.3438H74.9162V63.6477C74.9162 62.4357 74.2562 61.8117 73.2602 61.8117C72.2522 61.8117 71.5922 62.4357 71.5922 63.6477V67.3438H70.2242ZM84.3172 64.0317C84.3172 66.1077 82.7812 67.4518 80.8852 67.4518C79.0012 67.4518 77.5732 66.1077 77.5732 64.0317C77.5732 61.9557 79.0612 60.6237 80.9452 60.6237C82.8292 60.6237 84.3172 61.9557 84.3172 64.0317ZM78.9652 64.0317C78.9652 65.5317 79.8532 66.2637 80.8852 66.2637C81.9052 66.2637 82.9132 65.5317 82.9132 64.0317C82.9132 62.5317 81.9412 61.8117 80.9212 61.8117C79.8892 61.8117 78.9652 62.5317 78.9652 64.0317ZM85.8855 65.5077V61.8477H85.1055V60.7318H85.8855V59.0877H87.2655V60.7318H88.8735V61.8477H87.2655V65.5077C87.2655 65.9997 87.4575 66.2037 88.0335 66.2037H88.8735V67.3438H87.7935C86.6175 67.3438 85.8855 66.8517 85.8855 65.5077ZM96.4344 64.0317C96.4344 66.1077 94.8984 67.4518 93.0024 67.4518C91.1184 67.4518 89.6904 66.1077 89.6904 64.0317C89.6904 61.9557 91.1784 60.6237 93.0624 60.6237C94.9464 60.6237 96.4344 61.9557 96.4344 64.0317ZM91.0824 64.0317C91.0824 65.5317 91.9704 66.2637 93.0024 66.2637C94.0224 66.2637 95.0304 65.5317 95.0304 64.0317C95.0304 62.5317 94.0584 61.8117 93.0384 61.8117C92.0064 61.8117 91.0824 62.5317 91.0824 64.0317Z" fill="#D8D8D8"/>
<rect x="0.5" y="0.5" width="126" height="84" rx="3.5" stroke="#E6E6E6"/>
</svg>
