<svg width="24" height="24" viewBox="0 0 24 24" fill="none" xmlns="http://www.w3.org/2000/svg">
<path fill-rule="evenodd" clip-rule="evenodd" d="M17.8051 3.92285C17.2027 3.92285 16.625 4.16215 16.1991 4.5881L9.25179 11.5354C9.15952 11.6276 9.09406 11.7433 9.06241 11.8699L8.33112 14.795C8.26978 15.0404 8.34167 15.2999 8.5205 15.4788C8.69934 15.6576 8.95889 15.7295 9.20425 15.6681L12.1294 14.9369C12.256 14.9052 12.3716 14.8397 12.4639 14.7475L19.4112 7.80021C19.8371 7.37425 20.0764 6.79654 20.0764 6.19415C20.0764 5.59177 19.8371 5.01405 19.4112 4.5881C18.9852 4.16215 18.4075 3.92285 17.8051 3.92285ZM17.2173 5.60633C17.3732 5.45044 17.5846 5.36285 17.8051 5.36285C18.0256 5.36285 18.237 5.45044 18.3929 5.60633C18.5488 5.76223 18.6364 5.97368 18.6364 6.19415C18.6364 6.41463 18.5488 6.62607 18.3929 6.78197L11.5867 13.5882L10.0192 13.9801L10.411 12.4126L17.2173 5.60633Z" fill="#505050"/>
<path d="M6.10446 5.47435C5.5256 5.47435 4.97045 5.7043 4.56114 6.11361C4.15182 6.52292 3.92188 7.07807 3.92188 7.65693V17.895C3.92188 18.4739 4.15182 19.029 4.56114 19.4383C4.97045 19.8476 5.5256 20.0776 6.10446 20.0776H16.3425C16.9214 20.0776 17.4765 19.8476 17.8858 19.4383C18.2952 19.029 18.5251 18.4739 18.5251 17.895V12.776C18.5251 12.3783 18.2028 12.056 17.8051 12.056C17.4075 12.056 17.0851 12.3783 17.0851 12.776V17.895C17.0851 18.0919 17.0069 18.2808 16.8676 18.4201C16.7283 18.5593 16.5395 18.6376 16.3425 18.6376H6.10446C5.90751 18.6376 5.71863 18.5593 5.57937 18.4201C5.44011 18.2808 5.36187 18.0919 5.36187 17.895V7.65693C5.36187 7.45998 5.44011 7.27111 5.57937 7.13184C5.71863 6.99258 5.90751 6.91435 6.10446 6.91435H11.2235C11.6211 6.91435 11.9435 6.59199 11.9435 6.19435C11.9435 5.7967 11.6211 5.47435 11.2235 5.47435H6.10446Z" fill="#505050"/>
</svg>
