<svg width="24" height="24" viewBox="0 0 24 24" fill="none" xmlns="http://www.w3.org/2000/svg">
<g id="04">
<g id="Union">
<path d="M12.0742 7.11146C12.2679 7.11146 12.4617 7.1235 12.6537 7.1475V4.00008H11.4931V7.1475C11.6868 7.1235 11.8805 7.11146 12.0742 7.11146Z" fill="#505050"/>
<path d="M7.10285 12.0812C7.10457 11.8858 7.11652 11.6887 7.14052 11.4932H4V12.6555H7.13885C7.11485 12.4652 7.10457 12.2732 7.10285 12.0812Z" fill="#505050"/>
<path d="M18.1942 6.77548L15.9674 9.00063C15.7274 8.69721 15.4515 8.42121 15.1463 8.18121L17.3731 5.95433L18.1942 6.77548Z" fill="#505050"/>
<path d="M9.00223 8.18121L6.77536 5.95433L5.95431 6.77548L8.17941 9.00063C8.42112 8.69721 8.69709 8.42121 9.00223 8.18121Z" fill="#505050"/>
<path d="M17.3731 18.1926L15.1548 15.9761C15.4582 15.7343 15.7343 15.4583 15.9743 15.1532L18.1942 17.3732L17.3731 18.1926Z" fill="#505050"/>
<path d="M17.0062 11.4932C17.0577 11.8789 17.0577 12.2698 17.0097 12.6555H20.1485V11.4932H17.0062Z" fill="#505050"/>
<path d="M11.4931 17.0166C11.6868 17.0406 11.8805 17.0526 12.0742 17.0526C12.2679 17.0526 12.4617 17.0406 12.6537 17.0166V20.1486H11.4931V17.0166Z" fill="#505050"/>
<path d="M8.1725 15.1549L5.95431 17.3732L6.77536 18.1926L8.99365 15.9761C8.68851 15.7343 8.4125 15.4583 8.1725 15.1549Z" fill="#505050"/>
<path d="M12.0742 16.1235C14.3062 16.1235 16.1166 14.3149 16.1166 12.0812C16.1166 9.8492 14.3062 8.03891 12.0742 8.03891C9.8405 8.03891 8.03198 9.8492 8.03198 12.0812C8.03198 14.3149 9.8405 16.1235 12.0742 16.1235Z" fill="#505050"/>
</g>
</g>
</svg>
