<svg width="24" height="24" viewBox="0 0 24 24" fill="none" xmlns="http://www.w3.org/2000/svg">
<g id="02">
<g id="Union">
<path d="M13.03 7.51438C11.472 7.97238 10.4181 9.41636 10.4181 11.0204H17.75C17.75 9.30236 16.56 7.83439 14.91 7.44639C14.358 4.67239 11.792 2.77037 8.974 3.02237C6.154 3.29837 4 5.68034 4 8.50034V21.3324H5.83398V8.50034C5.85598 6.68834 7.18609 5.15438 8.99609 4.90238C10.8061 4.65038 12.526 5.75038 13.03 7.51438Z" fill="#505050"/>
<path d="M17.98 11.9364H10.188C9.79799 11.9364 9.5 12.2344 9.5 12.6244C9.5 13.0144 9.79799 13.3124 10.188 13.3124H17.98C18.37 13.3124 18.6681 13.0144 18.6681 12.6244C18.6681 12.2344 18.37 11.9364 17.98 11.9364Z" fill="#505050"/>
<path d="M13.832 20.9204C13.832 21.1724 14.038 21.3784 14.29 21.3784C14.542 21.3784 14.748 21.1724 14.748 20.9204V14.7324C14.748 14.4804 14.542 14.2744 14.29 14.2744C14.038 14.2744 13.832 14.4804 13.832 14.7324V20.9204Z" fill="#505050"/>
<path d="M17.0401 21.3324C16.8121 21.3324 16.6041 21.1724 16.5821 20.9444L15.6661 14.8244C15.6201 14.5724 15.8021 14.3444 16.0541 14.2984C16.3061 14.2524 16.5361 14.4344 16.5821 14.6864L17.4981 20.8064C17.5221 20.9204 17.4761 21.0584 17.4061 21.1504C17.3381 21.2424 17.2241 21.3104 17.1081 21.3324H17.0401Z" fill="#505050"/>
<path d="M19.332 20.7824C19.378 20.9664 19.562 21.1043 19.768 21.1043C19.904 21.1043 20.042 21.0344 20.156 20.9204C20.248 20.8064 20.272 20.6463 20.226 20.5083L18.416 14.5964C18.324 14.3664 18.072 14.2524 17.842 14.3204C17.59 14.3884 17.4519 14.6403 17.5219 14.8703L19.332 20.7824Z" fill="#505050"/>
<path d="M11.5181 21.3324H11.4481C11.1961 21.2864 11.0361 21.0584 11.0601 20.8064L11.9761 14.6864C12.0221 14.4344 12.2501 14.2524 12.5021 14.2984C12.7541 14.3444 12.9381 14.5724 12.8921 14.8244L11.9761 20.9444C11.9521 21.1724 11.7461 21.3324 11.5181 21.3324Z" fill="#505050"/>
<path d="M8.42406 20.9204C8.51606 21.0344 8.65203 21.1043 8.79002 21.1043C8.99603 21.1043 9.18003 20.9664 9.24803 20.7824L11.06 14.8703C11.104 14.6403 10.968 14.3884 10.738 14.3204C10.486 14.2524 10.256 14.3664 10.166 14.5964L8.35399 20.5083C8.30999 20.6463 8.33206 20.8064 8.42406 20.9204Z" fill="#505050"/>
</g>
</g>
</svg>
