<svg width="24" height="24" viewBox="0 0 24 24" fill="none" xmlns="http://www.w3.org/2000/svg">
<g id="12">
<g id="Union">
<path d="M2.82891 3.99902C3.29858 3.99902 3.65781 4.4174 3.65781 4.96493V13.0141H8.26367V8.89258H20.9011C21.5055 8.89258 22 9.46882 22 10.1727V19.4533H20.3516V17.8531H9.36257C8.75818 17.8531 8.26367 17.2771 8.26367 16.573V16.2337H3.65781V19.4536H2V4.96493C2 4.4174 2.35923 3.99902 2.82891 3.99902Z" fill="#505050"/>
<path d="M6.07812 12C6.90655 12 7.57812 11.3283 7.57812 10.5C7.57812 9.67149 6.90655 9 6.07812 9C5.24973 9 4.57812 9.67149 4.57812 10.5C4.57812 11.3283 5.24973 12 6.07812 12Z" fill="#505050"/>
</g>
</g>
</svg>
