<!DOCTYPE svg PUBLIC "-//W3C//DTD SVG 1.1//EN" "http://www.w3.org/Graphics/SVG/1.1/DTD/svg11.dtd">

<!-- Uploaded to: SVG Repo, www.svgrepo.com, Transformed by: SVG Repo Mixer Tools -->
<svg fill="#505050" height="24px" width="24px" version="1.1" id="Layer_1" xmlns="http://www.w3.org/2000/svg" xmlns:xlink="http://www.w3.org/1999/xlink" viewBox="0 0 512 512" xml:space="preserve" stroke="#505050">

<g id="SVGRepo_bgCarrier" stroke-width="0"/>

<g id="SVGRepo_tracerCarrier" stroke-linecap="round" stroke-linejoin="round"/>

<g id="SVGRepo_iconCarrier"> <g> <g> <path d="M88.084,0C77.056,0,64,4.972,64,16v432.248C64,459.276,77.056,472,88.084,472H248V0H88.084z M226.084,252 c-7.72,0-14-6.28-14-14c0-7.72,6.28-14,14-14c7.72,0,14,6.28,14,14C240.084,245.72,233.804,252,226.084,252z"/> </g> </g> <g> <g> <path d="M432.084,0H264v472h168.084C443.112,472,448,459.276,448,448.248V16C448,4.972,443.112,0,432.084,0z M294.084,252 c-7.72,0-14-6.28-14-14c0-7.72,6.28-14,14-14c7.72,0,14,6.28,14,14C308.084,245.72,301.804,252,294.084,252z"/> </g> </g> <g> <g> <path d="M80,488v16c0,8,0,8,8.084,8h337.584c6.332,0,6.332,0,6.332-8v-16H80z"/> </g> </g> </g>

</svg>