<svg width="24" height="24" viewBox="0 0 24 24" fill="none" xmlns="http://www.w3.org/2000/svg">
<g id="14">
<g id="Union">
<path fill-rule="evenodd" clip-rule="evenodd" d="M14.3541 7.18943C14.3491 7.22946 14.3441 7.26927 14.3441 7.31403C17.8757 8.23203 20.4991 11.668 20.4991 15.77H4.42278C4.42278 11.668 7.04613 8.23203 10.5778 7.31403C10.5575 7.22414 10.5575 7.15418 10.5575 7.06235C10.5575 5.91635 11.4031 5 12.4609 5C13.5188 5 14.3643 5.91601 14.3643 7.06201C14.3643 7.10826 14.3592 7.14896 14.3541 7.18943ZM12.4609 5.91602C11.8683 5.91602 11.4031 6.42201 11.4031 7.06201V7.13202C11.7631 7.08602 12.1009 7.06201 12.4609 7.06201C12.8209 7.06201 13.1809 7.08602 13.5188 7.13202V7.06201C13.5188 6.42201 13.0536 5.91602 12.4609 5.91602Z" fill="#505050"/>
<path d="M4 17.146V16.688H20.9219V17.146C20.9219 17.65 20.5416 18.062 20.0763 18.062H4.84555C4.38032 18.062 4 17.65 4 17.146Z" fill="#505050"/>
</g>
</g>
</svg>
