<svg width="24" height="24" viewBox="0 0 24 24" fill="none" xmlns="http://www.w3.org/2000/svg">
<g id="11">
<g id="Union">
<path d="M6.9239 10.2648C7.97621 10.2648 8.8273 9.41371 8.8273 8.3614C8.8273 7.31094 7.97621 6.45801 6.9239 6.45801C5.8716 6.45801 5.02051 7.31094 5.02051 8.3614C5.02051 9.41371 5.8716 10.2648 6.9239 10.2648Z" fill="#505050"/>
<path d="M17.0777 10.2648C18.13 10.2648 18.9811 9.41371 18.9811 8.3614C18.9811 7.31094 18.13 6.45801 17.0777 6.45801C16.0254 6.45801 15.1743 7.31094 15.1743 8.3614C15.1743 9.41371 16.0254 10.2648 17.0777 10.2648Z" fill="#505050"/>
<path d="M15.8079 17.5421V15.6387C15.8079 15.3415 15.6824 15.0461 15.4276 14.8763C14.9199 14.4535 14.2442 14.1581 13.5667 13.9883C13.1015 13.8609 12.5513 13.7354 12.0011 13.7354C11.4934 13.7354 10.9432 13.8184 10.4355 13.9883C9.75801 14.1581 9.12479 14.496 8.57463 14.8763C8.31986 15.0886 8.19434 15.3415 8.19434 15.6387V17.5421H15.8079Z" fill="#505050"/>
<path d="M12.0011 13.2276C13.0534 13.2276 13.9044 12.3746 13.9044 11.3223C13.9044 10.2719 13.0534 9.41895 12.0011 9.41895C10.9487 9.41895 10.0977 10.2719 10.0977 11.3223C10.0977 12.3746 10.9487 13.2276 12.0011 13.2276Z" fill="#505050"/>
<path d="M20.5043 11.9153C19.9966 11.4925 19.3209 11.1971 18.6434 11.0272C18.1782 10.8998 17.628 10.7725 17.0778 10.7725C16.5701 10.7725 16.0199 10.8574 15.5122 11.0272L15.5013 11.0309C15.252 11.1146 15.0009 11.1989 14.7517 11.3226V11.3651C14.7517 12.0851 14.4545 12.7626 13.9893 13.2279C14.7942 13.4808 15.4273 13.8186 15.935 14.2008C15.9665 14.2318 15.9981 14.2604 16.029 14.2884C16.1229 14.3735 16.2109 14.4533 16.2748 14.5811H20.8846V12.6777C20.8846 12.3805 20.7591 12.0851 20.5043 11.9153Z" fill="#505050"/>
<path d="M10.0125 13.2279C9.33501 13.4383 8.6594 13.7761 8.06678 14.2008C7.89694 14.3263 7.81195 14.4113 7.68457 14.5811H3.11719V12.6777C3.11719 12.3805 3.24271 12.0851 3.49748 11.9153C4.04764 11.535 4.68086 11.2377 5.3584 11.0272C5.86609 10.8574 6.41629 10.7725 6.92398 10.7725C7.47413 10.7725 8.02433 10.8998 8.48956 11.0272C8.65621 11.0552 8.82366 11.1201 8.99085 11.1848C9.0774 11.2183 9.16388 11.2518 9.25015 11.2801V11.3651C9.25015 12.0851 9.54731 12.7202 10.0125 13.2279Z" fill="#505050"/>
</g>
</g>
</svg>
