<svg width="24" height="24" viewBox="0 0 24 24" fill="none" xmlns="http://www.w3.org/2000/svg">
<path d="M16.7585 6.34493C18.3814 6.34608 19.6957 7.66265 19.6934 9.2855C19.6934 10.8215 18.5105 12.0969 16.9791 12.2146V16.9758H7.02709V12.2146C6.44309 12.1701 5.88537 11.9518 5.42594 11.5872C4.15394 10.5792 3.94023 8.73123 4.94823 7.45923C5.95623 6.18723 7.80423 5.97351 9.07623 6.98151C9.20537 5.56894 10.3242 4.45123 11.7357 4.32209C13.3517 4.17352 14.7825 5.36437 14.9299 6.98151C15.4499 6.56894 16.0945 6.34493 16.7585 6.34493Z" fill="#505050"/>
<path d="M16.9793 17.8813H7.02734V19.6905H16.9793V17.8813Z" fill="#505050"/>
</svg>
