<svg width="24" height="24" viewBox="0 0 24 24" fill="none" xmlns="http://www.w3.org/2000/svg">
<g id="01">
<g id="Union">
<path fill-rule="evenodd" clip-rule="evenodd" d="M11.5011 10.5013C9.55488 10.5013 7.97745 12.0788 7.97745 14.0228C7.97745 15.969 9.55488 17.5464 11.5011 17.5464C13.4451 17.5464 15.0225 15.969 15.0225 14.0228C15.0204 12.0788 13.4451 10.5035 11.5011 10.5013ZM14.1084 14.1188C13.8378 14.3893 13.3993 14.3893 13.1288 14.1188C13.116 14.106 13.1023 14.0923 13.0916 14.0795C12.8429 13.7871 12.4023 13.75 12.1099 13.9987C12.0815 14.0227 12.0553 14.0511 12.0313 14.0795C11.7826 14.3719 11.3419 14.4067 11.0495 14.158C11.0211 14.134 10.9949 14.1079 10.9709 14.0795C10.7222 13.7871 10.2814 13.75 9.98908 13.9987C9.961 14.0225 9.93509 14.0506 9.90917 14.0786C9.66263 14.3688 9.22329 14.4046 8.93093 14.1559C8.91784 14.145 8.90474 14.1319 8.89165 14.1188C8.88946 14.0882 8.88725 14.0555 8.88725 14.0228C8.88725 12.5806 10.0567 11.409 11.5011 11.409C12.9432 11.409 14.1149 12.5806 14.1149 14.0228C14.1149 14.0453 14.1128 14.0679 14.1108 14.0897L14.1084 14.1188Z" fill="#505050"/>
<path d="M9.45455 5.04674H6.72727V6.41038H9.45455V5.04674Z" fill="#505050"/>
<path d="M11.9549 6.41038C12.3302 6.41038 12.6357 6.10495 12.6357 5.72749C12.6357 5.35222 12.3302 5.04674 11.9549 5.04674C11.5774 5.04674 11.272 5.35222 11.272 5.72749C11.272 6.10495 11.5774 6.41038 11.9549 6.41038Z" fill="#505050"/>
<path d="M14.6822 5.72749C14.6822 6.10495 14.3767 6.41038 13.9993 6.41038C13.624 6.41038 13.3185 6.10495 13.3185 5.72749C13.3185 5.35222 13.624 5.04674 13.9993 5.04674C14.3767 5.04674 14.6822 5.35222 14.6822 5.72749Z" fill="#505050"/>
<path d="M16.0458 6.41038C16.4211 6.41038 16.7266 6.10495 16.7266 5.72749C16.7266 5.35222 16.4211 5.04674 16.0458 5.04674C15.6684 5.04674 15.3629 5.35222 15.3629 5.72749C15.3629 6.10495 15.6684 6.41038 16.0458 6.41038Z" fill="#505050"/>
<path fill-rule="evenodd" clip-rule="evenodd" d="M19 3.00022V21.6373H4V3.00022H19ZM7.06765 14.0228C7.06765 16.4708 9.05307 18.4541 11.5011 18.4541C13.9469 18.4541 15.9324 16.4708 15.9324 14.0228C15.9324 11.5748 13.9469 9.59149 11.5011 9.59149C9.05307 9.59149 7.06765 11.5748 7.06765 14.0228ZM5.36364 7.09113H17.6364V4.36386H5.36364V7.09113Z" fill="#505050"/>
</g>
</g>
</svg>
