<svg width="24" height="24" viewBox="0 0 24 24" fill="none" xmlns="http://www.w3.org/2000/svg">
<g id="13">
<path id="Vector" fill-rule="evenodd" clip-rule="evenodd" d="M2.80742 7.97995H3.61484C3.93781 7.97995 4.2204 8.20633 4.34151 8.52323L5.63339 15.2235H11.4869H11.9318H18.2666L19.5585 8.52323C19.6796 8.20633 19.9622 7.97995 20.2851 7.97995H21.0926C21.5367 7.97995 21.9 8.38743 21.9 8.88539V17.0344C21.9 18.0304 21.1733 18.8453 20.2851 18.8453H19.4777V20.6562H17.0555V18.8453H11.9318H11.4869H6.84425V20.6562H4.42226V18.8453H3.61484C2.72668 18.8453 2 18.0304 2 17.0344V8.88539C2 8.38743 2.36334 7.97995 2.80742 7.97995ZM11.4869 3H18.6299C19.5181 3 20.2448 3.81489 20.2448 4.81088V6.16905C19.2759 6.16905 18.3877 6.84816 18.0244 7.84415L17.9439 8.16105L16.9344 13.4126H11.9318H11.4869H6.92526L5.91598 8.16105L5.83524 7.84415C5.4719 6.80288 4.58374 6.16905 3.61484 6.16905V4.81088C3.61484 3.81489 4.34152 3 5.22942 3H11.4869Z" fill="#505050"/>
</g>
</svg>
