<svg width="24" height="24" viewBox="0 0 24 24" fill="none" xmlns="http://www.w3.org/2000/svg">
<g id="05">
<g id="Union">
<path d="M4 3H5.83398V17.5004H4V3Z" fill="#505050"/>
<path d="M4 18.4996H19.584V20.0007H4V18.4996Z" fill="#505050"/>
<path d="M19.584 15.4996H15.458V17.5004H19.584V15.4996Z" fill="#505050"/>
<path d="M15.458 7.00142H19.584V14.5004H15.458V7.00142Z" fill="#505050"/>
<path d="M19.584 3.99929H15.458V6H19.584V3.99929Z" fill="#505050"/>
<path fill-rule="evenodd" clip-rule="evenodd" d="M14.542 6.49964H10.876V17.5004H14.542V6.49964ZM12.708 8.50035C12.456 8.50035 12.25 8.27562 12.25 8.00071C12.25 7.7258 12.456 7.50106 12.708 7.50106C12.96 7.50106 13.168 7.7258 13.168 8.00071C13.168 8.27562 12.96 8.50035 12.708 8.50035ZM12.708 16.5011C12.456 16.5011 12.25 16.2764 12.25 15.9993C12.25 15.7244 12.456 15.4996 12.708 15.4996C12.96 15.4996 13.168 15.7244 13.168 15.9993C13.168 16.2764 12.96 16.5011 12.708 16.5011Z" fill="#505050"/>
<path fill-rule="evenodd" clip-rule="evenodd" d="M6.75 4.50107H9.95801V17.5004H6.75V4.50107ZM7.66797 7.00142H9.04199V5.50036H7.66797V7.00142Z" fill="#505050"/>
</g>
</g>
</svg>
