<svg width="24" height="24" viewBox="0 0 24 24" fill="none" xmlns="http://www.w3.org/2000/svg">
<g id="15">
<g id="Union">
<path d="M11.9324 2H12.1492C13.0191 2 14.0352 2.58893 14.0352 4.24912C14.0196 4.78782 13.9312 5.32249 13.7722 5.83969C13.5593 6.58174 13.4319 7.34363 13.3923 8.11192H10.6881C10.6486 7.34403 10.5212 6.58241 10.3083 5.84081C10.1498 5.32315 10.0619 4.78815 10.0467 4.24912C10.0467 2.58893 11.0625 2 11.9324 2Z" fill="#505050"/>
<path d="M10.714 8.64344H13.3682C13.3856 9.11725 13.4688 9.58656 13.6155 10.0385H10.4667C10.6136 9.58656 10.6967 9.11725 10.714 8.64344Z" fill="#505050"/>
<path d="M13.8391 10.5702H10.2428C10.0845 10.9765 9.89667 11.3899 9.70539 11.8109L9.6962 11.8311C9.11155 13.1161 8.50715 14.4445 8.50715 15.9724C8.50715 19.0179 10.2075 21.4898 10.4032 21.7641C10.8383 22.089 11.3769 22.2648 11.931 22.2624H12.1496C12.7043 22.2676 13.244 22.0919 13.6781 21.7646C13.8714 21.4941 15.5744 19.0203 15.5744 15.9724C15.5744 14.4452 14.9704 13.1169 14.3861 11.8321L14.3857 11.8311C14.1912 11.4036 14.0007 10.9842 13.8391 10.5702Z" fill="#505050"/>
<path d="M19.1993 6.11902H19.3666C20.0381 6.11902 20.8225 6.57351 20.8225 7.85476C20.8104 8.27043 20.7422 8.68321 20.6194 9.08221C20.4551 9.65483 20.3568 10.2429 20.3262 10.8359H18.2388C18.2082 10.2431 18.1099 9.65555 17.9455 9.08317C17.8232 8.68369 17.7554 8.27067 17.7437 7.85476C17.7437 6.57351 18.5277 6.11902 19.1993 6.11902Z" fill="#505050"/>
<path d="M20.3502 11.3011H18.2858C18.2724 11.6621 18.2077 12.0196 18.0935 12.3639H20.5425C20.4284 12.0196 20.3637 11.6621 20.3502 11.3011Z" fill="#505050"/>
<path d="M17.8942 12.7625H20.6716C20.7965 13.0845 20.9435 13.4111 21.0937 13.7438C21.545 14.744 22.0118 15.7787 22.0118 16.9674C22.0118 19.3401 20.6966 21.2655 20.5473 21.4762C20.2121 21.731 19.7953 21.8678 19.3669 21.8638H19.1981C18.7701 21.8654 18.3542 21.7289 18.0182 21.4757C17.867 21.2624 16.5539 19.3382 16.5539 16.9674C16.5539 15.7782 17.0204 14.7445 17.4719 13.7443L17.4804 13.7254C17.6278 13.3986 17.7723 13.0779 17.8942 12.7625Z" fill="#505050"/>
<path d="M4.8491 6.11902H4.67795C3.99116 6.11902 3.18927 6.57351 3.18927 7.85476C3.20125 8.27067 3.27067 8.68369 3.39577 9.08317C3.56384 9.65555 3.66438 10.2431 3.69568 10.8359H5.83053C5.86182 10.2429 5.96236 9.65483 6.13044 9.08221C6.25596 8.68321 6.32573 8.27043 6.33806 7.85476C6.33806 6.57351 5.53587 6.11902 4.8491 6.11902Z" fill="#505050"/>
<path d="M3.73145 11.3011H5.79578C5.80929 11.6621 5.87401 12.0196 5.98815 12.3639H3.53908C3.65328 12.0196 3.71801 11.6621 3.73145 11.3011Z" fill="#505050"/>
<path d="M6.17059 12.7625H3.35755C3.2337 13.0789 3.08673 13.4007 2.93692 13.7287L2.93002 13.7438C2.47286 14.7439 2 15.7784 2 16.9674C2 19.3382 3.32996 21.2624 3.48308 21.4757C3.82341 21.7289 4.24464 21.8654 4.67806 21.8638H4.84909C5.28298 21.8678 5.70513 21.731 6.04457 21.4762C6.19578 21.2655 7.52785 19.3401 7.52785 16.9674C7.52785 15.7785 7.05521 14.7442 6.59809 13.7439C6.44597 13.4112 6.29695 13.0845 6.17059 12.7625Z" fill="#505050"/>
</g>
</g>
</svg>
