<svg width="24" height="24" viewBox="0 0 24 24" fill="none" xmlns="http://www.w3.org/2000/svg">
<g id="10">
<path id="Vector" d="M19.5 12.75C18.8 12.75 18.25 12.35 18.25 11.875C18.25 11.4 18.8 11 19.5 11C20.2 11 20.75 11.4 20.75 11.875C20.75 12.35 20.2 12.75 19.5 12.75ZM18.25 15.5C17.55 15.5 17 15.1 17 14.625C17 14.15 17.55 13.75 18.25 13.75C18.95 13.75 19.5 14.15 19.5 14.625C19.5 15.1 18.95 15.5 18.25 15.5ZM15.5 8.5C14.8 8.5 14.25 8.1 14.25 7.625C14.25 7.15 14.8 6.75 15.5 6.75C16.2 6.75 16.75 7.15 16.75 7.625C16.75 8.1 16.2 8.5 15.5 8.5ZM15.5 17C14.8 17 14.25 16.6 14.25 16.125C14.25 15.65 14.8 15.25 15.5 15.25C16.2 15.25 16.75 15.65 16.75 16.125C16.75 16.6 16.2 17 15.5 17ZM12 17.75C11.3 17.75 10.75 17.35 10.75 16.875C10.75 16.4 11.3 16 12 16C12.7 16 13.25 16.4 13.25 16.875C13.25 17.35 12.7 17.75 12 17.75ZM10.65 7.65C11.05 7.25 11.575 7.175 11.85 7.45C12.125 7.725 12.025 8.25 11.65 8.65C11.25 9.05 10.725 9.125 10.45 8.85C10.15 8.575 10.25 8.025 10.65 7.65ZM8.5 17.25C7.8 17.25 7.25 16.85 7.25 16.375C7.25 15.9 7.8 15.5 8.5 15.5C9.2 15.5 9.75 15.9 9.75 16.375C9.75 16.85 9.2 17.25 8.5 17.25ZM18.25 8.5C18.95 8.5 19.5 8.9 19.5 9.375C19.5 9.85 18.95 10.25 18.25 10.25C17.55 10.25 17 9.85 17 9.375C17 8.9 17.55 8.5 18.25 8.5ZM12 5C6.325 5 7.225 7.225 7.75 7.75L9 9C9.8 9.825 8.825 10.75 7.9 10.35L4.775 9C2.575 8.05 2 10.725 2 12C2 15.875 6.475 19 12 19C17.525 19 22 15.875 22 12C22 8.125 17.525 5 12 5Z" fill="#505050"/>
</g>
</svg>
