<svg width="24" height="24" viewBox="0 0 24 24" fill="none" xmlns="http://www.w3.org/2000/svg">
<g id="03">
<path id="Vector" d="M14.6458 7.58314C14.2562 7.58314 13.9583 7.31232 13.9583 6.95814C13.9583 6.60398 14.2562 6.33314 14.6458 6.33314C15.0354 6.33314 15.3333 6.60398 15.3333 6.95814C15.3333 7.31232 15.0354 7.58314 14.6458 7.58314ZM14.6458 9.66648C14.2562 9.66648 13.9583 9.39564 13.9583 9.04148C13.9583 8.68732 14.2562 8.41648 14.6458 8.41648C15.0354 8.41648 15.3333 8.68732 15.3333 9.04148C15.3333 9.39564 15.0354 9.66648 14.6458 9.66648ZM14.6458 11.7498C14.2562 11.7498 13.9583 11.479 13.9583 11.1248C13.9583 10.7706 14.2562 10.4998 14.6458 10.4998C15.0354 10.4998 15.3333 10.7706 15.3333 11.1248C15.3333 11.479 15.0354 11.7498 14.6458 11.7498ZM14.8979 16.4165L13.8896 16.8748C13.8208 16.9165 13.7292 16.854 13.7292 16.7915V15.8748C13.7292 15.7915 13.8208 15.7498 13.8896 15.7915L14.8979 16.2498C14.9896 16.2706 14.9896 16.3956 14.8979 16.4165ZM12.3542 7.58314C11.9646 7.58314 11.6667 7.31232 11.6667 6.95814C11.6667 6.60398 11.9646 6.33314 12.3542 6.33314C12.7438 6.33314 13.0417 6.60398 13.0417 6.95814C13.0417 7.31232 12.7438 7.58314 12.3542 7.58314ZM12.3542 9.66648C11.9646 9.66648 11.6667 9.39564 11.6667 9.04148C11.6667 8.68732 11.9646 8.41648 12.3542 8.41648C12.7438 8.41648 13.0417 8.68732 13.0417 9.04148C13.0417 9.39564 12.7438 9.66648 12.3542 9.66648ZM12.3542 11.7498C11.9646 11.7498 11.6667 11.479 11.6667 11.1248C11.6667 10.7706 11.9646 10.4998 12.3542 10.4998C12.7438 10.4998 13.0417 10.7706 13.0417 11.1248C13.0417 11.479 12.7438 11.7498 12.3542 11.7498ZM11.7583 14.9373L12.2625 14.0206C12.3083 13.9373 12.4229 13.9373 12.4688 14.0206L12.9729 14.9373C13.0188 14.9998 12.95 15.0831 12.8813 15.0831H11.8729C11.7583 15.0831 11.7125 14.9998 11.7583 14.9373ZM12.3542 16.9581C11.9646 16.9581 11.6667 16.6873 11.6667 16.3331C11.6667 15.979 11.9646 15.7081 12.3542 15.7081C12.7438 15.7081 13.0417 15.979 13.0417 16.3331C13.0417 16.6873 12.7438 16.9581 12.3542 16.9581ZM12.95 17.729L12.4458 18.6456C12.4 18.729 12.2854 18.729 12.2396 18.6456L11.7354 17.729C11.6896 17.6665 11.7583 17.5831 11.8271 17.5831H12.8354C12.95 17.5831 12.9958 17.6665 12.95 17.729ZM10.9792 16.7915C10.9792 16.8748 10.8875 16.9165 10.8188 16.8748L9.81042 16.4165C9.71875 16.3748 9.71875 16.2706 9.81042 16.229L10.8188 15.7706C10.8875 15.729 10.9792 15.7915 10.9792 15.854V16.7915ZM9.375 11.1248C9.375 10.7706 9.67292 10.4998 10.0625 10.4998C10.4521 10.4998 10.75 10.7706 10.75 11.1248C10.75 11.479 10.4521 11.7498 10.0625 11.7498C9.67292 11.7498 9.375 11.479 9.375 11.1248ZM10.0625 8.41648C10.4521 8.41648 10.75 8.68732 10.75 9.04148C10.75 9.39564 10.4521 9.66648 10.0625 9.66648C9.67292 9.66648 9.375 9.39564 9.375 9.04148C9.375 8.68732 9.67292 8.41648 10.0625 8.41648ZM10.0625 6.33314C10.4521 6.33314 10.75 6.60398 10.75 6.95814C10.75 7.31232 10.4521 7.58314 10.0625 7.58314C9.67292 7.58314 9.375 7.31232 9.375 6.95814C9.375 6.60398 9.67292 6.33314 10.0625 6.33314ZM15.7917 2.99982H8.91667C8.4125 2.99982 8 3.37482 8 3.83315V20.4998C8 20.9581 8.4125 21.3331 8.91667 21.3331H15.7917C16.2958 21.3331 16.7083 20.9581 16.7083 20.4998V3.83315C16.7083 3.37482 16.2958 2.99982 15.7917 2.99982Z" fill="#505050"/>
</g>
</svg>
